{"asset":{"version":"2.0","generator":"shapeless \u2014 spessore 4 mm + occlusione ambientale"},"scene":0,"scenes":[{"nodes":[0,1,2,3]}],"nodes":[{"name":"Blade","mesh":0,"translation":[0.0,0.06,0.0]},{"name":"Piedistallo","mesh":3},{"name":"Ombra","mesh":1},{"name":"Ciclorama","mesh":4}],"meshes":[{"name":"Blade","primitives":[{"attributes":{"POSITION":0,"NORMAL":1,"TEXCOORD_0":2,"COLOR_0":5},"indices":4,"material":0}]},{"name":"Ombra","primitives":[{"attributes":{"POSITION":14,"NORMAL":15,"TEXCOORD_0":16},"indices":17,"material":2}]},{"name":"Piedistallo corto","primitives":[{"attributes":{"POSITION":6,"NORMAL":7,"TEXCOORD_0":8},"indices":9,"material":1}]},{"name":"Piedistallo lungo","primitives":[{"attributes":{"POSITION":10,"NORMAL":11,"TEXCOORD_0":12},"indices":13,"material":1}]},{"name":"Ciclorama","primitives":[{"attributes":{"POSITION":18,"NORMAL":19,"COLOR_0":20},"indices":21,"material":3}]}],"materials":[{"name":"PLA stampato","pbrMetallicRoughness":{"baseColorFactor":[0.028426,0.028426,0.028426,1.0],"metallicFactor":0.0,"roughnessFactor":0.68,"metallicRoughnessTexture":{"index":1}},"normalTexture":{"index":0,"scale":0.36},"doubleSided":true},{"name":"Marmo nero","pbrMetallicRoughness":{"baseColorTexture":{"index":2},"baseColorFactor":[1,1,1,1],"metallicFactor":0.0,"roughnessFactor":0.52},"extensions":{"KHR_materials_specular":{"specularFactor":0.28}}},{"name":"Ombra di contatto","alphaMode":"BLEND","doubleSided":false,"pbrMetallicRoughness":{"baseColorTexture":{"index":3},"baseColorFactor":[1,1,1,1],"metallicFactor":0.0,"roughnessFactor":1.0},"extensions":{"KHR_materials_unlit":{}}},{"name":"Ciclorama","pbrMetallicRoughness":{"baseColorFactor":[0.985,0.982,0.975,1.0],"metallicFactor":0.0,"roughnessFactor":0.96},"doubleSided":true,"extensions":{"KHR_materials_specular":{"specularFactor":0.12}}}],"bufferViews":[{"buffer":0,"byteOffset":0,"byteLength":1418448,"target":34962},{"buffer":0,"byteOffset":1418448,"byteLength":1418448,"target":34962},{"buffer":0,"byteOffset":2836896,"byteLength":945632,"target":34962},{"buffer":0,"byteOffset":3782528,"byteLength":472816,"target":34962},{"buffer":0,"byteOffset":4255344,"byteLength":2285376,"target":34963},{"buffer":0,"byteOffset":6540720,"byteLength":110690},{"buffer":0,"byteOffset":6651412,"byteLength":16564},{"buffer":0,"byteOffset":6667976,"byteLength":472816},{"buffer":0,"byteOffset":7140792,"byteLength":288,"target":34962},{"buffer":0,"byteOffset":7141080,"byteLength":288,"target":34962},{"buffer":0,"byteOffset":7141368,"byteLength":192,"target":34962},{"buffer":0,"byteOffset":7141560,"byteLength":72,"target":34963},{"buffer":0,"byteOffset":7141632,"byteLength":288,"target":34962},{"buffer":0,"byteOffset":7141920,"byteLength":288,"target":34962},{"buffer":0,"byteOffset":7142208,"byteLength":192,"target":34962},{"buffer":0,"byteOffset":7142400,"byteLength":72,"target":34963},{"buffer":0,"byteOffset":7142472,"byteLength":319895},{"buffer":0,"byteOffset":7462368,"byteLength":10243},{"buffer":0,"byteOffset":7472612,"byteLength":48,"target":34962},{"buffer":0,"byteOffset":7472660,"byteLength":48,"target":34962},{"buffer":0,"byteOffset":7472708,"byteLength":32,"target":34962},{"buffer":0,"byteOffset":7472740,"byteLength":12,"target":34963},{"buffer":0,"byteOffset":7472752,"byteLength":30264,"target":34962},{"buffer":0,"byteOffset":7503016,"byteLength":30264,"target":34962},{"buffer":0,"byteOffset":7533280,"byteLength":40352,"target":34962},{"buffer":0,"byteOffset":7573632,"byteLength":57600,"target":34963}],"accessors":[{"bufferView":0,"componentType":5126,"count":118204,"type":"VEC3","min":[-0.13873805105686188,0.0,-0.14202702045440674],"max":[0.13873805105686188,0.3700000047683716,0.14202702045440674]},{"bufferView":1,"componentType":5126,"count":118204,"type":"VEC3"},{"bufferView":2,"componentType":5126,"count":118204,"type":"VEC2"},{"bufferView":3,"componentType":5121,"count":118204,"type":"VEC4","normalized":true},{"bufferView":4,"componentType":5125,"count":571344,"type":"SCALAR"},{"bufferView":7,"componentType":5121,"normalized":true,"count":118204,"type":"VEC4"},{"bufferView":8,"componentType":5126,"count":24,"type":"VEC3","min":[-0.22499999403953552,0.0,-0.22499999403953552],"max":[0.22499999403953552,0.05999999865889549,0.22499999403953552]},{"bufferView":9,"componentType":5126,"count":24,"type":"VEC3"},{"bufferView":10,"componentType":5126,"count":24,"type":"VEC2"},{"bufferView":11,"componentType":5123,"count":36,"type":"SCALAR"},{"bufferView":12,"componentType":5126,"count":24,"type":"VEC3","min":[-0.22499999403953552,-0.8500000238418579,-0.22499999403953552],"max":[0.22499999403953552,0.05999999865889549,0.22499999403953552]},{"bufferView":13,"componentType":5126,"count":24,"type":"VEC3"},{"bufferView":14,"componentType":5126,"count":24,"type":"VEC2"},{"bufferView":15,"componentType":5123,"count":36,"type":"SCALAR"},{"bufferView":18,"componentType":5126,"count":4,"type":"VEC3","min":[-0.22499999403953552,0.06040000170469284,-0.22499999403953552],"max":[0.22499999403953552,0.06040000170469284,0.22499999403953552]},{"bufferView":19,"componentType":5126,"count":4,"type":"VEC3"},{"bufferView":20,"componentType":5126,"count":4,"type":"VEC2"},{"bufferView":21,"componentType":5123,"count":6,"type":"SCALAR"},{"bufferView":22,"componentType":5126,"count":2522,"type":"VEC3","min":[-1.899999976158142,-0.8999999761581421,-1.899999976158142],"max":[1.899999976158142,2.1500000953674316,1.899999976158142]},{"bufferView":23,"componentType":5126,"count":2522,"type":"VEC3"},{"bufferView":24,"componentType":5126,"count":2522,"type":"VEC4"},{"bufferView":25,"componentType":5125,"count":14400,"type":"SCALAR"}],"buffers":[{"uri":"blade-pied-v19.bin","byteLength":7631232}],"images":[{"bufferView":5,"mimeType":"image/png"},{"bufferView":6,"mimeType":"image/png"},{"bufferView":16,"mimeType":"image/png"},{"bufferView":17,"mimeType":"image/png"}],"samplers":[{"wrapS":10497,"wrapT":10497,"magFilter":9729,"minFilter":9987},{"magFilter":9729,"minFilter":9987,"wrapS":10497,"wrapT":10497},{"magFilter":9729,"minFilter":9987,"wrapS":33071,"wrapT":33071}],"textures":[{"source":0,"sampler":0},{"source":1,"sampler":0},{"sampler":1,"source":2},{"sampler":2,"source":3}],"extensionsUsed":["KHR_materials_specular","KHR_materials_unlit"]}