{"asset":{"version":"2.0","generator":"shapeless \u2014 spessore 4 mm"},"scene":0,"scenes":[{"nodes":[0,1,2]}],"nodes":[{"name":"Blade","mesh":0,"translation":[0.0,0.06,0.0]},{"name":"Piedistallo","mesh":3},{"name":"Ombra","mesh":1}],"meshes":[{"name":"Blade","primitives":[{"attributes":{"POSITION":0,"NORMAL":1,"TEXCOORD_0":2,"COLOR_0":3},"indices":4,"material":0}]},{"name":"Ombra","primitives":[{"attributes":{"POSITION":13,"NORMAL":14,"TEXCOORD_0":15},"indices":16,"material":2}]},{"name":"Piedistallo corto","primitives":[{"attributes":{"POSITION":5,"NORMAL":6,"TEXCOORD_0":7},"indices":8,"material":1}]},{"name":"Piedistallo lungo","primitives":[{"attributes":{"POSITION":9,"NORMAL":10,"TEXCOORD_0":11},"indices":12,"material":1}]}],"materials":[{"name":"PLA stampato","pbrMetallicRoughness":{"baseColorFactor":[0.042311,0.068478,0.051269,1.0],"metallicFactor":0.0,"roughnessFactor":0.8,"metallicRoughnessTexture":{"index":1}},"normalTexture":{"index":0,"scale":0.36},"doubleSided":true},{"name":"Marmo nero","pbrMetallicRoughness":{"baseColorTexture":{"index":2},"baseColorFactor":[1,1,1,1],"metallicFactor":0.0,"roughnessFactor":0.52},"extensions":{"KHR_materials_specular":{"specularFactor":0.28}}},{"name":"Ombra di contatto","alphaMode":"BLEND","doubleSided":false,"pbrMetallicRoughness":{"baseColorTexture":{"index":3},"baseColorFactor":[1,1,1,1],"metallicFactor":0.0,"roughnessFactor":1.0},"extensions":{"KHR_materials_unlit":{}}}],"bufferViews":[{"buffer":0,"byteOffset":0,"byteLength":1418448,"target":34962},{"buffer":0,"byteOffset":1418448,"byteLength":1418448,"target":34962},{"buffer":0,"byteOffset":2836896,"byteLength":945632,"target":34962},{"buffer":0,"byteOffset":3782528,"byteLength":472816,"target":34962},{"buffer":0,"byteOffset":4255344,"byteLength":2285376,"target":34963},{"buffer":0,"byteOffset":6540720,"byteLength":110690},{"buffer":0,"byteOffset":6651412,"byteLength":16564},{"buffer":0,"byteOffset":6667976,"byteLength":288,"target":34962},{"buffer":0,"byteOffset":6668264,"byteLength":288,"target":34962},{"buffer":0,"byteOffset":6668552,"byteLength":192,"target":34962},{"buffer":0,"byteOffset":6668744,"byteLength":72,"target":34963},{"buffer":0,"byteOffset":6668816,"byteLength":288,"target":34962},{"buffer":0,"byteOffset":6669104,"byteLength":288,"target":34962},{"buffer":0,"byteOffset":6669392,"byteLength":192,"target":34962},{"buffer":0,"byteOffset":6669584,"byteLength":72,"target":34963},{"buffer":0,"byteOffset":6669656,"byteLength":319895},{"buffer":0,"byteOffset":6989552,"byteLength":11094},{"buffer":0,"byteOffset":7000648,"byteLength":48,"target":34962},{"buffer":0,"byteOffset":7000696,"byteLength":48,"target":34962},{"buffer":0,"byteOffset":7000744,"byteLength":32,"target":34962},{"buffer":0,"byteOffset":7000776,"byteLength":12,"target":34963}],"accessors":[{"bufferView":0,"componentType":5126,"count":118204,"type":"VEC3","min":[-0.13873805105686188,0.0,-0.14202702045440674],"max":[0.13873805105686188,0.3700000047683716,0.14202702045440674]},{"bufferView":1,"componentType":5126,"count":118204,"type":"VEC3"},{"bufferView":2,"componentType":5126,"count":118204,"type":"VEC2"},{"bufferView":3,"componentType":5121,"count":118204,"type":"VEC4","normalized":true},{"bufferView":4,"componentType":5125,"count":571344,"type":"SCALAR"},{"bufferView":7,"componentType":5126,"count":24,"type":"VEC3","min":[-0.22499999403953552,0.0,-0.22499999403953552],"max":[0.22499999403953552,0.05999999865889549,0.22499999403953552]},{"bufferView":8,"componentType":5126,"count":24,"type":"VEC3"},{"bufferView":9,"componentType":5126,"count":24,"type":"VEC2"},{"bufferView":10,"componentType":5123,"count":36,"type":"SCALAR"},{"bufferView":11,"componentType":5126,"count":24,"type":"VEC3","min":[-0.22499999403953552,-0.8500000238418579,-0.22499999403953552],"max":[0.22499999403953552,0.05999999865889549,0.22499999403953552]},{"bufferView":12,"componentType":5126,"count":24,"type":"VEC3"},{"bufferView":13,"componentType":5126,"count":24,"type":"VEC2"},{"bufferView":14,"componentType":5123,"count":36,"type":"SCALAR"},{"bufferView":17,"componentType":5126,"count":4,"type":"VEC3","min":[-0.22499999403953552,0.06040000170469284,-0.22499999403953552],"max":[0.22499999403953552,0.06040000170469284,0.22499999403953552]},{"bufferView":18,"componentType":5126,"count":4,"type":"VEC3"},{"bufferView":19,"componentType":5126,"count":4,"type":"VEC2"},{"bufferView":20,"componentType":5123,"count":6,"type":"SCALAR"}],"buffers":[{"uri":"blade-pied-v12.bin","byteLength":7000788}],"images":[{"bufferView":5,"mimeType":"image/png"},{"bufferView":6,"mimeType":"image/png"},{"bufferView":15,"mimeType":"image/png"},{"bufferView":16,"mimeType":"image/png"}],"samplers":[{"wrapS":10497,"wrapT":10497,"magFilter":9729,"minFilter":9987},{"magFilter":9729,"minFilter":9987,"wrapS":10497,"wrapT":10497},{"magFilter":9729,"minFilter":9987,"wrapS":33071,"wrapT":33071}],"textures":[{"source":0,"sampler":0},{"source":1,"sampler":0},{"sampler":1,"source":2},{"sampler":2,"source":3}],"extensionsUsed":["KHR_materials_specular","KHR_materials_unlit"]}