{"asset":{"version":"2.0","generator":"shapeless-build-model"},"scene":0,"scenes":[{"nodes":[0,1]}],"nodes":[{"mesh":0,"name":"Blade","translation":[0.0,0.06,0.0]},{"name":"Piedistallo","mesh":2}],"meshes":[{"name":"Blade","primitives":[{"attributes":{"POSITION":0,"NORMAL":1,"TEXCOORD_0":2,"COLOR_0":3},"indices":4,"material":0}]},{"name":"Piedistallo corto","primitives":[{"attributes":{"POSITION":5,"NORMAL":6,"TEXCOORD_0":7},"indices":8,"material":1}]},{"name":"Piedistallo lungo","primitives":[{"attributes":{"POSITION":9,"NORMAL":10,"TEXCOORD_0":11},"indices":12,"material":1}]}],"materials":[{"name":"PLA stampato","pbrMetallicRoughness":{"baseColorFactor":[0.806952,0.48515,0.016807,1.0],"metallicFactor":0.0,"roughnessFactor":0.8,"metallicRoughnessTexture":{"index":1}},"normalTexture":{"index":0,"scale":0.36},"doubleSided":true},{"name":"Marmo nero","pbrMetallicRoughness":{"baseColorTexture":{"index":2},"baseColorFactor":[1,1,1,1],"metallicFactor":0.0,"roughnessFactor":0.68},"extensions":{"KHR_materials_specular":{"specularFactor":0.16}}}],"textures":[{"source":0,"sampler":0},{"source":1,"sampler":0},{"sampler":1,"source":2}],"samplers":[{"wrapS":10497,"wrapT":10497,"magFilter":9729,"minFilter":9987},{"magFilter":9729,"minFilter":9987,"wrapS":10497,"wrapT":10497}],"images":[{"bufferView":5,"mimeType":"image/png"},{"bufferView":6,"mimeType":"image/png"},{"bufferView":15,"mimeType":"image/png"}],"buffers":[{"uri":"blade-pied-v4.bin","byteLength":3297092}],"bufferViews":[{"buffer":0,"byteOffset":0,"byteLength":588624,"target":34962},{"buffer":0,"byteOffset":588624,"byteLength":588624,"target":34962},{"buffer":0,"byteOffset":1177248,"byteLength":392416,"target":34962},{"buffer":0,"byteOffset":1569664,"byteLength":196208,"target":34962},{"buffer":0,"byteOffset":1765872,"byteLength":1082388,"target":34963},{"buffer":0,"byteOffset":2848260,"byteLength":110690},{"buffer":0,"byteOffset":2958952,"byteLength":16564},{"buffer":0,"byteOffset":2975516,"byteLength":288,"target":34962},{"buffer":0,"byteOffset":2975804,"byteLength":288,"target":34962},{"buffer":0,"byteOffset":2976092,"byteLength":192,"target":34962},{"buffer":0,"byteOffset":2976284,"byteLength":72,"target":34963},{"buffer":0,"byteOffset":2976356,"byteLength":288,"target":34962},{"buffer":0,"byteOffset":2976644,"byteLength":288,"target":34962},{"buffer":0,"byteOffset":2976932,"byteLength":192,"target":34962},{"buffer":0,"byteOffset":2977124,"byteLength":72,"target":34963},{"buffer":0,"byteOffset":2977196,"byteLength":319895}],"accessors":[{"bufferView":0,"componentType":5126,"count":49052,"type":"VEC3","min":[-0.13873805105686188,0.0,-0.14202702045440674],"max":[0.13873805105686188,0.3700000047683716,0.14202702045440674]},{"bufferView":1,"componentType":5126,"count":49052,"type":"VEC3"},{"bufferView":2,"componentType":5126,"count":49052,"type":"VEC2"},{"bufferView":3,"componentType":5121,"normalized":true,"count":49052,"type":"VEC4"},{"bufferView":4,"componentType":5125,"count":270597,"type":"SCALAR"},{"bufferView":7,"componentType":5126,"count":24,"type":"VEC3","min":[-0.22499999403953552,0.0,-0.22499999403953552],"max":[0.22499999403953552,0.05999999865889549,0.22499999403953552]},{"bufferView":8,"componentType":5126,"count":24,"type":"VEC3"},{"bufferView":9,"componentType":5126,"count":24,"type":"VEC2"},{"bufferView":10,"componentType":5123,"count":36,"type":"SCALAR"},{"bufferView":11,"componentType":5126,"count":24,"type":"VEC3","min":[-0.22499999403953552,-0.8500000238418579,-0.22499999403953552],"max":[0.22499999403953552,0.05999999865889549,0.22499999403953552]},{"bufferView":12,"componentType":5126,"count":24,"type":"VEC3"},{"bufferView":13,"componentType":5126,"count":24,"type":"VEC2"},{"bufferView":14,"componentType":5123,"count":36,"type":"SCALAR"}],"extensionsUsed":["KHR_materials_specular"]}