{"asset":{"version":"2.0","generator":"shapeless-build-model (variante colore)"},"scene":0,"scenes":[{"nodes":[0]}],"nodes":[{"mesh":0,"name":"Blade"}],"meshes":[{"name":"Blade","primitives":[{"attributes":{"POSITION":0,"NORMAL":1,"TEXCOORD_0":2,"COLOR_0":3},"indices":4,"material":0}]}],"materials":[{"name":"PLA stampato \u2014 Bordeaux","pbrMetallicRoughness":{"baseColorFactor":[0.147027,0.013702,0.059511,1.0],"metallicFactor":0.0,"roughnessFactor":0.8,"metallicRoughnessTexture":{"index":1}},"normalTexture":{"index":0,"scale":0.36},"doubleSided":true}],"textures":[{"source":0,"sampler":0},{"source":1,"sampler":0}],"samplers":[{"wrapS":10497,"wrapT":10497,"magFilter":9729,"minFilter":9987}],"images":[{"bufferView":5,"mimeType":"image/png"},{"bufferView":6,"mimeType":"image/png"}],"buffers":[{"uri":"blade.bin","byteLength":2975516}],"bufferViews":[{"buffer":0,"byteOffset":0,"byteLength":588624,"target":34962},{"buffer":0,"byteOffset":588624,"byteLength":588624,"target":34962},{"buffer":0,"byteOffset":1177248,"byteLength":392416,"target":34962},{"buffer":0,"byteOffset":1569664,"byteLength":196208,"target":34962},{"buffer":0,"byteOffset":1765872,"byteLength":1082388,"target":34963},{"buffer":0,"byteOffset":2848260,"byteLength":110690},{"buffer":0,"byteOffset":2958952,"byteLength":16564}],"accessors":[{"bufferView":0,"componentType":5126,"count":49052,"type":"VEC3","min":[-0.13873805105686188,0.0,-0.14202702045440674],"max":[0.13873805105686188,0.3700000047683716,0.14202702045440674]},{"bufferView":1,"componentType":5126,"count":49052,"type":"VEC3"},{"bufferView":2,"componentType":5126,"count":49052,"type":"VEC2"},{"bufferView":3,"componentType":5121,"normalized":true,"count":49052,"type":"VEC4"},{"bufferView":4,"componentType":5125,"count":270597,"type":"SCALAR"}]}