{"asset":{"version":"2.0","generator":"shapeless-build-model (variante colore)"},"scene":0,"scenes":[{"nodes":[0]}],"nodes":[{"mesh":0,"name":"PLA stampato"}],"meshes":[{"name":"PLA stampato","primitives":[{"attributes":{"POSITION":0,"NORMAL":1,"TEXCOORD_0":2,"COLOR_0":3},"indices":4,"material":0}]}],"materials":[{"name":"PLA stampato — Verde","pbrMetallicRoughness":{"baseColorFactor":[0.0,0.287441,0.078187,1.0],"metallicFactor":0.0,"roughnessFactor":0.8,"metallicRoughnessTexture":{"index":1}},"normalTexture":{"index":0,"scale":0.36},"doubleSided":false}],"textures":[{"source":0,"sampler":0},{"source":1,"sampler":0}],"samplers":[{"wrapS":10497,"wrapT":10497,"magFilter":9729,"minFilter":9987}],"images":[{"bufferView":5,"mimeType":"image/png"},{"bufferView":6,"mimeType":"image/png"}],"buffers":[{"uri":"bombato3.bin","byteLength":839284}],"bufferViews":[{"buffer":0,"byteOffset":0,"byteLength":155508,"target":34962},{"buffer":0,"byteOffset":155508,"byteLength":155508,"target":34962},{"buffer":0,"byteOffset":311016,"byteLength":103672,"target":34962},{"buffer":0,"byteOffset":414688,"byteLength":51836,"target":34962},{"buffer":0,"byteOffset":466524,"byteLength":255360,"target":34963},{"buffer":0,"byteOffset":721884,"byteLength":100834},{"buffer":0,"byteOffset":822720,"byteLength":16564}],"accessors":[{"bufferView":0,"componentType":5126,"count":12959,"type":"VEC3","min":[-0.1261025220155716,0.0,-0.1261025220155716],"max":[0.1261025220155716,0.1899999976158142,0.1261025220155716]},{"bufferView":1,"componentType":5126,"count":12959,"type":"VEC3"},{"bufferView":2,"componentType":5126,"count":12959,"type":"VEC2"},{"bufferView":3,"componentType":5121,"normalized":true,"count":12959,"type":"VEC4"},{"bufferView":4,"componentType":5125,"count":63840,"type":"SCALAR"}]}