{"asset":{"version":"2.0","generator":"shapeless-build-model (variante colore)"},"scene":0,"scenes":[{"nodes":[0]}],"nodes":[{"mesh":0,"name":"PLA stampato"}],"meshes":[{"name":"PLA stampato","primitives":[{"attributes":{"POSITION":0,"NORMAL":1,"TEXCOORD_0":2,"COLOR_0":3},"indices":4,"material":0}]}],"materials":[{"name":"PLA stampato — Rosè","pbrMetallicRoughness":{"baseColorFactor":[0.799103,0.590619,0.527115,1.0],"metallicFactor":0.0,"roughnessFactor":0.8,"metallicRoughnessTexture":{"index":1}},"normalTexture":{"index":0,"scale":0.36},"doubleSided":false}],"textures":[{"source":0,"sampler":0},{"source":1,"sampler":0}],"samplers":[{"wrapS":10497,"wrapT":10497,"magFilter":9729,"minFilter":9987}],"images":[{"bufferView":5,"mimeType":"image/png"},{"bufferView":6,"mimeType":"image/png"}],"buffers":[{"uri":"bombato4.bin","byteLength":860012}],"bufferViews":[{"buffer":0,"byteOffset":0,"byteLength":162420,"target":34962},{"buffer":0,"byteOffset":162420,"byteLength":162420,"target":34962},{"buffer":0,"byteOffset":324840,"byteLength":108280,"target":34962},{"buffer":0,"byteOffset":433120,"byteLength":54140,"target":34962},{"buffer":0,"byteOffset":487260,"byteLength":255360,"target":34963},{"buffer":0,"byteOffset":742620,"byteLength":100828},{"buffer":0,"byteOffset":843448,"byteLength":16564}],"accessors":[{"bufferView":0,"componentType":5126,"count":13535,"type":"VEC3","min":[-0.1287573128938675,0.0,-0.1287573128938675],"max":[0.1287573128938675,0.1900000125169754,0.1287573128938675]},{"bufferView":1,"componentType":5126,"count":13535,"type":"VEC3"},{"bufferView":2,"componentType":5126,"count":13535,"type":"VEC2"},{"bufferView":3,"componentType":5121,"normalized":true,"count":13535,"type":"VEC4"},{"bufferView":4,"componentType":5125,"count":63840,"type":"SCALAR"}]}