{"asset":{"version":"2.0","generator":"shapeless-build-model (variante colore)"},"scene":0,"scenes":[{"nodes":[0]}],"nodes":[{"mesh":0,"name":"PLA stampato"}],"meshes":[{"name":"PLA stampato","primitives":[{"attributes":{"POSITION":0,"NORMAL":1,"TEXCOORD_0":2,"COLOR_0":3},"indices":4,"material":0}]}],"materials":[{"name":"PLA stampato — Antracite","pbrMetallicRoughness":{"baseColorFactor":[0.127438,0.132868,0.132868,1.0],"metallicFactor":0.0,"roughnessFactor":0.8,"metallicRoughnessTexture":{"index":1}},"normalTexture":{"index":0,"scale":0.36},"doubleSided":true}],"textures":[{"source":0,"sampler":0},{"source":1,"sampler":0}],"samplers":[{"wrapS":10497,"wrapT":10497,"magFilter":9729,"minFilter":9987}],"images":[{"bufferView":5,"mimeType":"image/png"},{"bufferView":6,"mimeType":"image/png"}],"buffers":[{"uri":"bombato.bin","byteLength":470516}],"bufferViews":[{"buffer":0,"byteOffset":0,"byteLength":76908,"target":34962},{"buffer":0,"byteOffset":76908,"byteLength":76908,"target":34962},{"buffer":0,"byteOffset":153816,"byteLength":51272,"target":34962},{"buffer":0,"byteOffset":205088,"byteLength":25636,"target":34962},{"buffer":0,"byteOffset":230724,"byteLength":122400,"target":34963},{"buffer":0,"byteOffset":353124,"byteLength":100828},{"buffer":0,"byteOffset":453952,"byteLength":16564}],"accessors":[{"bufferView":0,"componentType":5126,"count":6409,"type":"VEC3","min":[-0.1287573128938675,0.0,-0.1287573128938675],"max":[0.1287573128938675,0.1900000125169754,0.1287573128938675]},{"bufferView":1,"componentType":5126,"count":6409,"type":"VEC3"},{"bufferView":2,"componentType":5126,"count":6409,"type":"VEC2"},{"bufferView":3,"componentType":5121,"normalized":true,"count":6409,"type":"VEC4"},{"bufferView":4,"componentType":5125,"count":30600,"type":"SCALAR"}]}