{"asset":{"version":"2.0","generator":"shapeless \u2014 spessore 4 mm + occlusione ambientale"},"scene":0,"scenes":[{"nodes":[0,1,2]}],"nodes":[{"name":"Blade","mesh":0},{"name":"Fondo","mesh":1},{"name":"Ombra","mesh":2}],"meshes":[{"name":"Blade","primitives":[{"attributes":{"POSITION":0,"NORMAL":1,"TEXCOORD_0":6,"COLOR_0":5},"indices":4,"material":0}]},{"name":"Fondo","primitives":[{"attributes":{"POSITION":7,"NORMAL":8,"COLOR_0":9},"indices":10,"material":1}]},{"name":"Ombra","primitives":[{"attributes":{"POSITION":11,"NORMAL":12,"TEXCOORD_0":13},"indices":14,"material":2}]}],"materials":[{"name":"PLA stampato \u2014 Giallo ocra","pbrMetallicRoughness":{"baseColorFactor":[0.806952,0.48515,0.016807,1.0],"metallicFactor":1.0,"roughnessFactor":1.0,"metallicRoughnessTexture":{"index":3}},"normalTexture":{"index":2,"scale":1.15},"doubleSided":true},{"name":"Fondo","pbrMetallicRoughness":{"baseColorFactor":[0.975,0.973,0.968,1],"metallicFactor":0.0,"roughnessFactor":0.9},"doubleSided":true,"extensions":{"KHR_materials_specular":{"specularFactor":0.3}}},{"name":"Ombra","alphaMode":"BLEND","doubleSided":false,"pbrMetallicRoughness":{"baseColorTexture":{"index":4},"baseColorFactor":[1,1,1,1],"metallicFactor":0,"roughnessFactor":1},"extensions":{"KHR_materials_unlit":{}}}],"bufferViews":[{"buffer":0,"byteOffset":0,"byteLength":1418448,"target":34962},{"buffer":0,"byteOffset":1418448,"byteLength":945632,"target":34962},{"buffer":0,"byteOffset":2364080,"byteLength":472816,"target":34962},{"buffer":0,"byteOffset":2836896,"byteLength":2285376,"target":34963},{"buffer":1,"byteOffset":0,"byteLength":110690},{"buffer":1,"byteOffset":110692,"byteLength":16564},{"buffer":1,"byteOffset":127256,"byteLength":472816},{"buffer":1,"byteOffset":600072,"byteLength":945632,"target":34962},{"buffer":1,"byteOffset":1545704,"byteLength":116150},{"buffer":1,"byteOffset":1661856,"byteLength":43561},{"buffer":1,"byteOffset":1705420,"byteLength":30264,"target":34962},{"buffer":1,"byteOffset":1735684,"byteLength":40352,"target":34962},{"buffer":1,"byteOffset":1776036,"byteLength":57600,"target":34963},{"buffer":1,"byteOffset":1833636,"byteLength":30493},{"buffer":1,"byteOffset":1864132,"byteLength":48,"target":34962},{"buffer":1,"byteOffset":1864180,"byteLength":32,"target":34962},{"buffer":1,"byteOffset":1864212,"byteLength":12,"target":34963},{"buffer":1,"byteOffset":1864224,"byteLength":472816,"byteStride":4,"target":34962},{"buffer":1,"byteOffset":2337040,"byteLength":10088,"byteStride":4,"target":34962},{"buffer":1,"byteOffset":2347128,"byteLength":16,"byteStride":4,"target":34962}],"accessors":[{"bufferView":0,"componentType":5126,"count":118204,"type":"VEC3","min":[-0.13873805105686188,0.0,-0.14202702045440674],"max":[0.13873805105686188,0.3700000047683716,0.14202702045440674]},{"bufferView":17,"componentType":5120,"count":118204,"type":"VEC3","normalized":true},{"bufferView":1,"componentType":5126,"count":118204,"type":"VEC2"},{"bufferView":2,"componentType":5121,"count":118204,"type":"VEC4","normalized":true},{"bufferView":3,"componentType":5125,"count":571344,"type":"SCALAR"},{"bufferView":6,"componentType":5121,"normalized":true,"count":118204,"type":"VEC4"},{"bufferView":7,"componentType":5126,"count":118204,"type":"VEC2"},{"bufferView":10,"componentType":5126,"count":2522,"type":"VEC3","min":[-1.75,0.0,-1.75],"max":[1.75,2.9000000953674316,1.75]},{"bufferView":18,"componentType":5120,"count":2522,"type":"VEC3","normalized":true},{"bufferView":11,"componentType":5126,"count":2522,"type":"VEC4"},{"bufferView":12,"componentType":5125,"count":14400,"type":"SCALAR"},{"bufferView":14,"componentType":5126,"count":4,"type":"VEC3","min":[-0.22499999403953552,0.00039999998989515007,-0.22499999403953552],"max":[0.22499999403953552,0.00039999998989515007,0.22499999403953552]},{"bufferView":19,"componentType":5120,"count":4,"type":"VEC3","normalized":true},{"bufferView":15,"componentType":5126,"count":4,"type":"VEC2"},{"bufferView":16,"componentType":5123,"count":6,"type":"SCALAR"}],"buffers":[{"uri":"scena-p1.bin","byteLength":5122272},{"uri":"scena-p2.bin","byteLength":2347144}],"images":[{"bufferView":4,"mimeType":"image/png"},{"bufferView":5,"mimeType":"image/png"},{"bufferView":8,"mimeType":"image/png"},{"bufferView":9,"mimeType":"image/png"},{"bufferView":13,"mimeType":"image/png"}],"samplers":[{"wrapS":10497,"wrapT":10497,"magFilter":9729,"minFilter":9987},{"magFilter":9729,"minFilter":9987,"wrapS":33071,"wrapT":33071}],"textures":[{"source":0,"sampler":0},{"source":1,"sampler":0},{"source":2,"sampler":0},{"source":3,"sampler":0},{"sampler":1,"source":4}],"extensionsUsed":["KHR_materials_specular","KHR_materials_unlit","KHR_mesh_quantization"],"extensionsRequired":["KHR_mesh_quantization"]}