{"asset":{"version":"2.0","generator":"shapeless-build-nuovi (variante colore)"},"scene":0,"scenes":[{"nodes":[0]}],"nodes":[{"mesh":0,"name":"Spin","scale":[0.972222,0.972222,0.972222]}],"meshes":[{"name":"Spin","primitives":[{"attributes":{"POSITION":0,"NORMAL":1,"TEXCOORD_0":2,"TEXCOORD_1":3,"COLOR_0":4},"indices":5,"material":0}]}],"materials":[{"name":"PLA stampato — Bordeaux","pbrMetallicRoughness":{"baseColorFactor":[0.283149,0.0865,0.109462,1.0],"metallicFactor":0.0,"roughnessFactor":0.8,"metallicRoughnessTexture":{"index":1}},"normalTexture":{"index":0,"scale":0.36},"doubleSided":true}],"textures":[{"source":0,"sampler":0},{"source":1,"sampler":0}],"samplers":[{"wrapS":10497,"wrapT":10497,"magFilter":9729,"minFilter":9987}],"images":[{"bufferView":6,"mimeType":"image/png"},{"bufferView":7,"mimeType":"image/png"}],"buffers":[{"uri":"spin1.bin","byteLength":4852844}],"bufferViews":[{"buffer":0,"byteOffset":0,"byteLength":895572,"target":34962},{"buffer":0,"byteOffset":895572,"byteLength":895572,"target":34962},{"buffer":0,"byteOffset":1791144,"byteLength":597048,"target":34962},{"buffer":0,"byteOffset":2388192,"byteLength":597048,"target":34962},{"buffer":0,"byteOffset":2985240,"byteLength":298524,"target":34962},{"buffer":0,"byteOffset":3283764,"byteLength":1439976,"target":34963},{"buffer":0,"byteOffset":4723740,"byteLength":112538},{"buffer":0,"byteOffset":4836280,"byteLength":16564}],"accessors":[{"bufferView":0,"componentType":5126,"count":74631,"type":"VEC3","min":[-0.09949102997779846,0.0,-0.09951280057430267],"max":[0.09949102997779846,0.36000001430511475,0.09951280057430267]},{"bufferView":1,"componentType":5126,"count":74631,"type":"VEC3"},{"bufferView":2,"componentType":5126,"count":74631,"type":"VEC2"},{"bufferView":3,"componentType":5126,"count":74631,"type":"VEC2"},{"bufferView":4,"componentType":5121,"normalized":true,"count":74631,"type":"VEC4"},{"bufferView":5,"componentType":5125,"count":359994,"type":"SCALAR"}]}