{"asset":{"version":"2.0","generator":"shapeless-build-nuovi (variante colore)"},"scene":0,"scenes":[{"nodes":[0]}],"nodes":[{"mesh":0,"name":"Torsione"}],"meshes":[{"name":"Torsione","primitives":[{"attributes":{"POSITION":0,"NORMAL":1,"TEXCOORD_0":2,"TEXCOORD_1":3,"COLOR_0":4},"indices":5,"material":0}]}],"materials":[{"name":"PLA stampato — Rosè","pbrMetallicRoughness":{"baseColorFactor":[0.799103,0.590619,0.527115,1.0],"metallicFactor":0.0,"roughnessFactor":0.8,"metallicRoughnessTexture":{"index":1}},"normalTexture":{"index":0,"scale":0.36},"doubleSided":true}],"textures":[{"source":0,"sampler":0},{"source":1,"sampler":0}],"samplers":[{"wrapS":10497,"wrapT":10497,"magFilter":9729,"minFilter":9987}],"images":[{"bufferView":6,"mimeType":"image/png"},{"bufferView":7,"mimeType":"image/png"}],"buffers":[{"uri":"torsione1.bin","byteLength":2220540}],"bufferViews":[{"buffer":0,"byteOffset":0,"byteLength":373644,"target":34962},{"buffer":0,"byteOffset":373644,"byteLength":373644,"target":34962},{"buffer":0,"byteOffset":747288,"byteLength":249096,"target":34962},{"buffer":0,"byteOffset":996384,"byteLength":249096,"target":34962},{"buffer":0,"byteOffset":1245480,"byteLength":124548,"target":34962},{"buffer":0,"byteOffset":1370028,"byteLength":720000,"target":34963},{"buffer":0,"byteOffset":2090028,"byteLength":113948},{"buffer":0,"byteOffset":2203976,"byteLength":16564}],"accessors":[{"bufferView":0,"componentType":5126,"count":31137,"type":"VEC3","min":[-0.07059171050786972,0.0,-0.07058868557214737],"max":[0.07059171050786972,0.36000001430511475,0.07058868557214737]},{"bufferView":1,"componentType":5126,"count":31137,"type":"VEC3"},{"bufferView":2,"componentType":5126,"count":31137,"type":"VEC2"},{"bufferView":3,"componentType":5126,"count":31137,"type":"VEC2"},{"bufferView":4,"componentType":5121,"normalized":true,"count":31137,"type":"VEC4"},{"bufferView":5,"componentType":5125,"count":180000,"type":"SCALAR"}]}