{"asset":{"version":"2.0","generator":"shapeless-build-model (variante colore)"},"scene":0,"scenes":[{"nodes":[0]}],"nodes":[{"mesh":0,"name":"Vulcano"}],"meshes":[{"name":"Vulcano","primitives":[{"attributes":{"POSITION":0,"NORMAL":1,"TEXCOORD_0":2,"COLOR_0":3},"indices":4,"material":0}]}],"materials":[{"name":"PLA stampato — Verde","pbrMetallicRoughness":{"baseColorFactor":[0.0,0.287441,0.078187,1.0],"metallicFactor":0.0,"roughnessFactor":0.8,"metallicRoughnessTexture":{"index":1}},"normalTexture":{"index":0,"scale":0.36},"doubleSided":true}],"textures":[{"source":0,"sampler":0},{"source":1,"sampler":0}],"samplers":[{"wrapS":10497,"wrapT":10497,"magFilter":9729,"minFilter":9987}],"images":[{"bufferView":5,"mimeType":"image/png"},{"bufferView":6,"mimeType":"image/png"}],"buffers":[{"uri":"vulcano7.bin","byteLength":3781972}],"bufferViews":[{"buffer":0,"byteOffset":0,"byteLength":734604,"target":34962},{"buffer":0,"byteOffset":734604,"byteLength":734604,"target":34962},{"buffer":0,"byteOffset":1469208,"byteLength":489736,"target":34962},{"buffer":0,"byteOffset":1958944,"byteLength":244868,"target":34962},{"buffer":0,"byteOffset":2203812,"byteLength":1448976,"target":34963},{"buffer":0,"byteOffset":3652788,"byteLength":112617},{"buffer":0,"byteOffset":3765408,"byteLength":16564}],"accessors":[{"bufferView":0,"componentType":5126,"count":61217,"type":"VEC3","min":[-0.09227142482995987,0.0,-0.09789423644542694],"max":[0.09227142482995987,0.25999999046325684,0.09789423644542694]},{"bufferView":1,"componentType":5126,"count":61217,"type":"VEC3"},{"bufferView":2,"componentType":5126,"count":61217,"type":"VEC2"},{"bufferView":3,"componentType":5121,"normalized":true,"count":61217,"type":"VEC4"},{"bufferView":4,"componentType":5125,"count":362244,"type":"SCALAR"}]}