{"asset":{"version":"2.0","generator":"shapeless-build-model (variante colore)"},"scene":0,"scenes":[{"nodes":[0]}],"nodes":[{"mesh":0,"name":"Vulcano"}],"meshes":[{"name":"Vulcano","primitives":[{"attributes":{"POSITION":0,"NORMAL":1,"TEXCOORD_0":2,"COLOR_0":3},"indices":4,"material":0}]}],"materials":[{"name":"PLA stampato — Emerald Green","pbrMetallicRoughness":{"baseColorFactor":[0.03434,0.124772,0.165132,1.0],"metallicFactor":0.0,"roughnessFactor":0.8,"metallicRoughnessTexture":{"index":1}},"normalTexture":{"index":0,"scale":0.36},"doubleSided":true}],"textures":[{"source":0,"sampler":0},{"source":1,"sampler":0}],"samplers":[{"wrapS":10497,"wrapT":10497,"magFilter":9729,"minFilter":9987}],"images":[{"bufferView":5,"mimeType":"image/png"},{"bufferView":6,"mimeType":"image/png"}],"buffers":[{"uri":"vulcano6.bin","byteLength":3771944}],"bufferViews":[{"buffer":0,"byteOffset":0,"byteLength":733704,"target":34962},{"buffer":0,"byteOffset":733704,"byteLength":733704,"target":34962},{"buffer":0,"byteOffset":1467408,"byteLength":489136,"target":34962},{"buffer":0,"byteOffset":1956544,"byteLength":244568,"target":34962},{"buffer":0,"byteOffset":2201112,"byteLength":1442664,"target":34963},{"buffer":0,"byteOffset":3643776,"byteLength":111603},{"buffer":0,"byteOffset":3755380,"byteLength":16564}],"accessors":[{"bufferView":0,"componentType":5126,"count":61142,"type":"VEC3","min":[-0.11355899274349213,0.0,-0.12048687785863876],"max":[0.11355899274349213,0.3199999928474426,0.12048687785863876]},{"bufferView":1,"componentType":5126,"count":61142,"type":"VEC3"},{"bufferView":2,"componentType":5126,"count":61142,"type":"VEC2"},{"bufferView":3,"componentType":5121,"normalized":true,"count":61142,"type":"VEC4"},{"bufferView":4,"componentType":5125,"count":360666,"type":"SCALAR"}]}