{"asset":{"version":"2.0","generator":"shapeless-build-model (variante colore)"},"scene":0,"scenes":[{"nodes":[0]}],"nodes":[{"mesh":0,"name":"Vulcano"}],"meshes":[{"name":"Vulcano","primitives":[{"attributes":{"POSITION":0,"NORMAL":1,"TEXCOORD_0":2,"COLOR_0":3},"indices":4,"material":0}]}],"materials":[{"name":"PLA stampato — Sage","pbrMetallicRoughness":{"baseColorFactor":[0.502886,0.520996,0.434154,1.0],"metallicFactor":0.0,"roughnessFactor":0.8,"metallicRoughnessTexture":{"index":1}},"normalTexture":{"index":0,"scale":0.36},"doubleSided":true}],"textures":[{"source":0,"sampler":0},{"source":1,"sampler":0}],"samplers":[{"wrapS":10497,"wrapT":10497,"magFilter":9729,"minFilter":9987}],"images":[{"bufferView":5,"mimeType":"image/png"},{"bufferView":6,"mimeType":"image/png"}],"buffers":[{"uri":"vulcano2.bin","byteLength":1349180}],"bufferViews":[{"buffer":0,"byteOffset":0,"byteLength":247008,"target":34962},{"buffer":0,"byteOffset":247008,"byteLength":247008,"target":34962},{"buffer":0,"byteOffset":494016,"byteLength":164672,"target":34962},{"buffer":0,"byteOffset":658688,"byteLength":82336,"target":34962},{"buffer":0,"byteOffset":741024,"byteLength":479988,"target":34963},{"buffer":0,"byteOffset":1221012,"byteLength":111603},{"buffer":0,"byteOffset":1332616,"byteLength":16564}],"accessors":[{"bufferView":0,"componentType":5126,"count":20584,"type":"VEC3","min":[-0.11356867104768753,0.0,-0.12049221992492676],"max":[0.11356867104768753,0.3199999928474426,0.12049221992492676]},{"bufferView":1,"componentType":5126,"count":20584,"type":"VEC3"},{"bufferView":2,"componentType":5126,"count":20584,"type":"VEC2"},{"bufferView":3,"componentType":5121,"normalized":true,"count":20584,"type":"VEC4"},{"bufferView":4,"componentType":5125,"count":119997,"type":"SCALAR"}]}