{"asset":{"version":"2.0","generator":"shapeless-build-model (variante colore)"},"scene":0,"scenes":[{"nodes":[0]}],"nodes":[{"mesh":0,"name":"Vulcano"}],"meshes":[{"name":"Vulcano","primitives":[{"attributes":{"POSITION":0,"NORMAL":1,"TEXCOORD_0":2,"COLOR_0":3},"indices":4,"material":0}]}],"materials":[{"name":"PLA stampato — Emerald Green","pbrMetallicRoughness":{"baseColorFactor":[0.03434,0.124772,0.165132,1.0],"metallicFactor":0.0,"roughnessFactor":0.8,"metallicRoughnessTexture":{"index":1}},"normalTexture":{"index":0,"scale":0.1},"doubleSided":true}],"textures":[{"source":0,"sampler":0},{"source":1,"sampler":0}],"samplers":[{"wrapS":10497,"wrapT":10497,"magFilter":9729,"minFilter":9987}],"images":[{"bufferView":5,"mimeType":"image/png"},{"bufferView":6,"mimeType":"image/png"}],"buffers":[{"uri":"vulcano3.bin","byteLength":2858588}],"bufferViews":[{"buffer":0,"byteOffset":0,"byteLength":550140,"target":34962},{"buffer":0,"byteOffset":550140,"byteLength":550140,"target":34962},{"buffer":0,"byteOffset":1100280,"byteLength":366760,"target":34962},{"buffer":0,"byteOffset":1467040,"byteLength":183380,"target":34962},{"buffer":0,"byteOffset":1650420,"byteLength":1080000,"target":34963},{"buffer":0,"byteOffset":2730420,"byteLength":111602},{"buffer":0,"byteOffset":2842024,"byteLength":16564}],"accessors":[{"bufferView":0,"componentType":5126,"count":45845,"type":"VEC3","min":[-0.1135716587305069,0.0,-0.12051244080066681],"max":[0.1135716587305069,0.3199999928474426,0.12051244080066681]},{"bufferView":1,"componentType":5126,"count":45845,"type":"VEC3"},{"bufferView":2,"componentType":5126,"count":45845,"type":"VEC2"},{"bufferView":3,"componentType":5121,"normalized":true,"count":45845,"type":"VEC4"},{"bufferView":4,"componentType":5125,"count":270000,"type":"SCALAR"}]}