{"asset":{"version":"2.0","generator":"shapeless-build-model (variante colore)"},"scene":0,"scenes":[{"nodes":[0]}],"nodes":[{"mesh":0,"name":"Vulcano"}],"meshes":[{"name":"Vulcano","primitives":[{"attributes":{"POSITION":0,"NORMAL":1,"TEXCOORD_0":2,"COLOR_0":3},"indices":4,"material":0}]}],"materials":[{"name":"PLA stampato — Verde","pbrMetallicRoughness":{"baseColorFactor":[0.0,0.287441,0.078187,1.0],"metallicFactor":0.0,"roughnessFactor":0.8,"metallicRoughnessTexture":{"index":1}},"normalTexture":{"index":0,"scale":0.36},"doubleSided":true}],"textures":[{"source":0,"sampler":0},{"source":1,"sampler":0}],"samplers":[{"wrapS":10497,"wrapT":10497,"magFilter":9729,"minFilter":9987}],"images":[{"bufferView":5,"mimeType":"image/png"},{"bufferView":6,"mimeType":"image/png"}],"buffers":[{"uri":"vulcano1.bin","byteLength":1042892}],"bufferViews":[{"buffer":0,"byteOffset":0,"byteLength":185256,"target":34962},{"buffer":0,"byteOffset":185256,"byteLength":185256,"target":34962},{"buffer":0,"byteOffset":370512,"byteLength":123504,"target":34962},{"buffer":0,"byteOffset":494016,"byteLength":61752,"target":34962},{"buffer":0,"byteOffset":555768,"byteLength":360228,"target":34963},{"buffer":0,"byteOffset":915996,"byteLength":110330},{"buffer":0,"byteOffset":1026328,"byteLength":16564}],"accessors":[{"bufferView":0,"componentType":5126,"count":15438,"type":"VEC3","min":[-0.11353914439678192,0.0,-0.15214195847511292],"max":[0.11353914439678192,0.3199999928474426,0.15214195847511292]},{"bufferView":1,"componentType":5126,"count":15438,"type":"VEC3"},{"bufferView":2,"componentType":5126,"count":15438,"type":"VEC2"},{"bufferView":3,"componentType":5121,"normalized":true,"count":15438,"type":"VEC4"},{"bufferView":4,"componentType":5125,"count":90057,"type":"SCALAR"}]}