{"asset":{"version":"2.0","generator":"shapeless-build-model (variante colore)"},"scene":0,"scenes":[{"nodes":[0]}],"nodes":[{"mesh":0,"name":"Vulcano"}],"meshes":[{"name":"Vulcano","primitives":[{"attributes":{"POSITION":0,"NORMAL":1,"TEXCOORD_0":2,"COLOR_0":3},"indices":4,"material":0}]}],"materials":[{"name":"PLA stampato — Verde","pbrMetallicRoughness":{"baseColorFactor":[0.0,0.287441,0.078187,1.0],"metallicFactor":0.0,"roughnessFactor":0.8,"metallicRoughnessTexture":{"index":1}},"normalTexture":{"index":0,"scale":0.0},"doubleSided":true}],"textures":[{"source":0,"sampler":0},{"source":1,"sampler":0}],"samplers":[{"wrapS":10497,"wrapT":10497,"magFilter":9729,"minFilter":9987}],"images":[{"bufferView":5,"mimeType":"image/png"},{"bufferView":6,"mimeType":"image/png"}],"buffers":[{"uri":"vulcano5.bin","byteLength":2887000}],"bufferViews":[{"buffer":0,"byteOffset":0,"byteLength":561912,"target":34962},{"buffer":0,"byteOffset":561912,"byteLength":561912,"target":34962},{"buffer":0,"byteOffset":1123824,"byteLength":374608,"target":34962},{"buffer":0,"byteOffset":1498432,"byteLength":187304,"target":34962},{"buffer":0,"byteOffset":1685736,"byteLength":1079988,"target":34963},{"buffer":0,"byteOffset":2765724,"byteLength":111603},{"buffer":0,"byteOffset":2877328,"byteLength":9671}],"accessors":[{"bufferView":0,"componentType":5126,"count":46826,"type":"VEC3","min":[-0.11357506364583969,0.0,-0.12049730867147446],"max":[0.11357506364583969,0.3199999928474426,0.12049730867147446]},{"bufferView":1,"componentType":5126,"count":46826,"type":"VEC3"},{"bufferView":2,"componentType":5126,"count":46826,"type":"VEC2"},{"bufferView":3,"componentType":5121,"normalized":true,"count":46826,"type":"VEC4"},{"bufferView":4,"componentType":5125,"count":269997,"type":"SCALAR"}]}