{"asset":{"version":"2.0","generator":"shapeless-build-nuovi (variante colore)"},"scene":0,"scenes":[{"nodes":[0]}],"nodes":[{"mesh":0,"name":"Zig","scale":[1.28,1.28,1.28]}],"meshes":[{"name":"Zig","primitives":[{"attributes":{"POSITION":0,"NORMAL":1,"TEXCOORD_0":2,"TEXCOORD_1":3,"COLOR_0":4},"indices":5,"material":0}]}],"materials":[{"name":"PLA multicolore — MT Mar","pbrMetallicRoughness":{"baseColorFactor":[1,1,1,1],"metallicFactor":0.0,"roughnessFactor":0.55,"metallicRoughnessTexture":{"index":1},"baseColorTexture":{"index":2,"texCoord":1}},"normalTexture":{"index":0,"scale":0.36},"doubleSided":true}],"textures":[{"source":0,"sampler":0},{"source":1,"sampler":0},{"source":2,"sampler":1}],"samplers":[{"wrapS":10497,"wrapT":10497,"magFilter":9729,"minFilter":9987},{"wrapS":10497,"wrapT":33071,"magFilter":9729,"minFilter":9729}],"images":[{"bufferView":6,"mimeType":"image/png"},{"bufferView":7,"mimeType":"image/png"},{"uri":"zig1-mtmar.png"}],"buffers":[{"uri":"zig1.bin","byteLength":407928}],"bufferViews":[{"buffer":0,"byteOffset":0,"byteLength":55968,"target":34962},{"buffer":0,"byteOffset":55968,"byteLength":55968,"target":34962},{"buffer":0,"byteOffset":111936,"byteLength":37312,"target":34962},{"buffer":0,"byteOffset":149248,"byteLength":37312,"target":34962},{"buffer":0,"byteOffset":186560,"byteLength":18656,"target":34962},{"buffer":0,"byteOffset":205216,"byteLength":73032,"target":34963},{"buffer":0,"byteOffset":278248,"byteLength":113116},{"buffer":0,"byteOffset":391364,"byteLength":16564}],"accessors":[{"bufferView":0,"componentType":5126,"count":4664,"type":"VEC3","min":[-0.08629061281681061,0.0,-0.08629228174686432],"max":[0.08629061281681061,0.25,0.08629228174686432]},{"bufferView":1,"componentType":5126,"count":4664,"type":"VEC3"},{"bufferView":2,"componentType":5126,"count":4664,"type":"VEC2"},{"bufferView":3,"componentType":5126,"count":4664,"type":"VEC2"},{"bufferView":4,"componentType":5121,"normalized":true,"count":4664,"type":"VEC4"},{"bufferView":5,"componentType":5125,"count":18258,"type":"SCALAR"}]}